<svg width="427" height="487" viewBox="0 0 427 487" fill="none" xmlns="http://www.w3.org/2000/svg">
<g clip-path="url(#clip0_6169_7013)">
<g clip-path="url(#clip1_6169_7013)">
<path d="M321.986 60.9146C315.106 87.9209 283.609 158.984 268.292 155.082C252.974 151.179 259.277 73.869 266.198 46.702C273.119 19.535 291.265 0.876841 306.583 4.77914C321.9 8.68144 328.907 33.7476 321.986 60.9146Z" fill="#252424" fill-opacity="0.3"/>
<path d="M219.392 47.1039C226.957 74.0241 235.463 151.17 220.115 155.477C204.766 159.783 171.501 89.511 163.936 62.5909C156.371 35.6707 162.64 10.3917 177.947 6.24572C193.296 1.93902 211.827 20.1838 219.392 47.1039Z" fill="#252424" fill-opacity="0.3"/>
<path d="M123.544 84.9967C143.644 104.497 189.486 167.189 178.509 178.6C167.37 189.971 103.464 145.616 83.3636 126.116C63.2629 106.616 56.0537 81.669 67.1922 70.2983C78.3307 58.9277 103.604 65.5375 123.544 84.9967Z" fill="#252424" fill-opacity="0.3"/>
<path d="M59.7734 165.47C86.8614 172.371 158.159 203.887 154.269 219.158C150.378 234.43 72.853 228.032 45.6037 221.09C18.3544 214.148 -0.379649 196.023 3.51087 180.751C7.40139 165.48 32.5241 158.528 59.7734 165.47Z" fill="#252424" fill-opacity="0.3"/>
<path d="M44.7047 267.08C71.6855 259.575 149.024 251.203 153.365 266.517C157.705 281.831 87.2939 314.906 60.3131 322.412C33.3323 329.918 7.97689 323.63 3.79778 308.357C-0.542575 293.043 17.7239 274.586 44.7047 267.08Z" fill="#252424" fill-opacity="0.3"/>
<path d="M82.8372 362.73C102.36 342.711 165.152 297.081 176.61 308.046C188.027 319.171 143.647 382.844 124.124 402.863C104.601 422.882 79.5983 430.036 68.1812 418.911C56.7642 407.785 63.355 382.588 82.8372 362.73Z" fill="#252424" fill-opacity="0.3"/>
<path d="M163.576 426.608C170.456 399.602 201.953 328.539 217.27 332.441C232.588 336.344 226.285 413.654 219.364 440.821C212.443 467.988 194.297 486.646 178.979 482.744C163.662 478.842 156.655 453.775 163.576 426.608Z" fill="#252424" fill-opacity="0.3"/>
<path d="M265.52 441.624C257.955 414.703 249.449 337.558 264.798 333.251C280.146 328.944 313.411 399.217 320.976 426.137C328.541 453.057 322.273 478.336 306.965 482.482C291.616 486.789 273.085 468.544 265.52 441.624Z" fill="#252424" fill-opacity="0.3"/>
<path d="M361.327 403.892C341.226 384.391 295.384 321.7 306.361 310.288C317.5 298.917 381.406 343.272 401.507 362.772C421.607 382.273 428.817 407.219 417.678 418.59C406.539 429.961 381.266 423.351 361.327 403.892Z" fill="#252424" fill-opacity="0.3"/>
<path d="M402.236 126.038C382.713 146.057 319.921 191.687 308.463 180.722C297.046 169.597 341.426 105.924 360.949 85.9051C380.472 65.8858 405.475 58.7318 416.892 69.8573C428.309 80.9827 421.718 106.18 402.236 126.038Z" fill="#252424" fill-opacity="0.3"/>
</g>
</g>
<defs>
<clipPath id="clip0_6169_7013">
<rect width="427" height="487" fill="white"/>
</clipPath>
<clipPath id="clip1_6169_7013">
<rect width="494.506" height="494.506" fill="white" transform="translate(64.0801 -57) rotate(14.2926)"/>
</clipPath>
</defs>
</svg>
