<svg width="36" height="36" viewBox="0 0 36 36" fill="none" xmlns="http://www.w3.org/2000/svg">
<path d="M17.7156 35.5004C15.0977 33.9012 12.4639 32.3267 9.86554 30.6974C6.67247 28.6943 4.64645 25.8542 3.83306 22.219C3.63018 21.3134 3.52408 20.3695 3.5185 19.4419C3.48872 14.4479 3.50361 9.45487 3.50454 4.46178C3.50454 3.72616 3.8191 3.3579 4.55897 3.2062C8.92837 2.31249 13.2978 1.41604 17.6681 0.530555C17.8868 0.485778 18.1316 0.492175 18.3521 0.536952C22.7122 1.4197 27.0695 2.31067 31.4278 3.20438C32.1928 3.36155 32.4841 3.72708 32.4841 4.49468C32.4841 9.44207 32.5287 14.3904 32.472 19.3378C32.4152 24.2075 30.271 28.0227 26.1221 30.6937C23.6876 32.2609 21.1906 33.7349 18.7216 35.25C18.5764 35.3396 18.4238 35.4172 18.274 35.4995H17.7165L17.7156 35.5004ZM5.73345 5.20197C5.73345 5.31711 5.73345 5.3957 5.73345 5.4752C5.73345 10.1485 5.68505 14.8217 5.74927 19.494C5.80418 23.4399 7.55659 26.5615 10.9088 28.7446C13.16 30.2103 15.4848 31.5673 17.7696 32.9838C17.9678 33.1062 18.0925 33.0623 18.2628 32.9573C20.4331 31.6185 22.6182 30.3026 24.7783 28.9474C28.3948 26.6775 30.2282 23.4161 30.2496 19.2044C30.2728 14.6682 30.2552 10.132 30.2552 5.59583V5.20837C30.1249 5.17822 30.0141 5.1508 29.9024 5.12795C26.0672 4.34207 22.233 3.55437 18.3959 2.77854C18.1446 2.72736 17.8645 2.72828 17.6123 2.77854C15.1023 3.28022 12.5951 3.79836 10.088 4.31101C8.64731 4.60617 7.20667 4.90133 5.73438 5.20289L5.73345 5.20197Z" fill="#252424"/>
<path d="M16.8827 24.5057C16.3476 24.2279 15.8283 24.0168 15.376 23.7107C14.45 23.0838 13.8888 22.1965 13.6422 21.1182C13.4756 20.3908 13.8051 19.8041 14.4621 19.6561C15.0875 19.5144 15.6412 19.9101 15.8162 20.622C16.0517 21.5806 16.7357 22.2093 17.6952 22.3509C18.5644 22.4788 19.4792 22.0329 19.9287 21.2616C20.7775 19.805 19.724 18.035 17.9846 17.9902C16.3402 17.9482 15.0568 17.2509 14.1922 15.8802C12.6892 13.4951 13.8702 10.348 16.5877 9.46613C16.8213 9.39028 16.906 9.30073 16.8846 9.06588C16.8669 8.87489 16.8678 8.67568 16.9013 8.48652C17.0009 7.93366 17.5221 7.55078 18.087 7.59647C18.6342 7.64033 19.0753 8.08444 19.1051 8.63365C19.1181 8.87124 19.107 9.11066 19.107 9.35647C19.2326 9.39942 19.3424 9.43506 19.4504 9.47436C20.9915 10.0373 21.9622 11.1 22.3438 12.6727C22.5197 13.3964 22.1837 13.9859 21.5267 14.1357C20.9031 14.2774 20.3485 13.8826 20.1726 13.1707C19.9334 12.2021 19.2224 11.5569 18.2601 11.4363C17.3518 11.323 16.436 11.8046 16.0116 12.6197C15.2541 14.0736 16.3094 15.7605 18.0032 15.8016C20.0879 15.8528 21.8235 17.1796 22.314 19.0977C22.8817 21.3174 21.6514 23.559 19.4346 24.3129C19.1833 24.3979 19.0809 24.4965 19.1023 24.7616C19.12 24.9845 19.106 25.2221 19.0446 25.4359C18.8994 25.9404 18.3867 26.2538 17.8655 26.1926C17.3471 26.1314 16.9227 25.7046 16.8874 25.1892C16.8706 24.9407 16.8846 24.6894 16.8846 24.5066L16.8827 24.5057Z" fill="#252424"/>
</svg>
