<svg width="22" height="22" viewBox="0 0 22 22" fill="none" xmlns="http://www.w3.org/2000/svg">
<path d="M17.4173 3.66683H15.584V2.75016C15.584 2.50705 15.4874 2.27389 15.3155 2.10198C15.1436 1.93007 14.9104 1.8335 14.6673 1.8335C14.4242 1.8335 14.191 1.93007 14.0191 2.10198C13.8472 2.27389 13.7507 2.50705 13.7507 2.75016V3.66683H8.25065V2.75016C8.25065 2.50705 8.15407 2.27389 7.98217 2.10198C7.81026 1.93007 7.5771 1.8335 7.33398 1.8335C7.09087 1.8335 6.85771 1.93007 6.6858 2.10198C6.51389 2.27389 6.41732 2.50705 6.41732 2.75016V3.66683H4.58398C3.85464 3.66683 3.15517 3.95656 2.63944 4.47229C2.12372 4.98801 1.83398 5.68748 1.83398 6.41683V17.4168C1.83398 18.1462 2.12372 18.8456 2.63944 19.3614C3.15517 19.8771 3.85464 20.1668 4.58398 20.1668H17.4173C18.1467 20.1668 18.8461 19.8771 19.3619 19.3614C19.8776 18.8456 20.1673 18.1462 20.1673 17.4168V6.41683C20.1673 5.68748 19.8776 4.98801 19.3619 4.47229C18.8461 3.95656 18.1467 3.66683 17.4173 3.66683ZM18.334 17.4168C18.334 17.6599 18.2374 17.8931 18.0655 18.065C17.8936 18.2369 17.6604 18.3335 17.4173 18.3335H4.58398C4.34087 18.3335 4.10771 18.2369 3.9358 18.065C3.76389 17.8931 3.66732 17.6599 3.66732 17.4168V11.0002H18.334V17.4168ZM18.334 9.16683H3.66732V6.41683C3.66732 6.17371 3.76389 5.94056 3.9358 5.76865C4.10771 5.59674 4.34087 5.50016 4.58398 5.50016H6.41732V6.41683C6.41732 6.65994 6.51389 6.8931 6.6858 7.06501C6.85771 7.23692 7.09087 7.3335 7.33398 7.3335C7.5771 7.3335 7.81026 7.23692 7.98217 7.06501C8.15407 6.8931 8.25065 6.65994 8.25065 6.41683V5.50016H13.7507V6.41683C13.7507 6.65994 13.8472 6.8931 14.0191 7.06501C14.191 7.23692 14.4242 7.3335 14.6673 7.3335C14.9104 7.3335 15.1436 7.23692 15.3155 7.06501C15.4874 6.8931 15.584 6.65994 15.584 6.41683V5.50016H17.4173C17.6604 5.50016 17.8936 5.59674 18.0655 5.76865C18.2374 5.94056 18.334 6.17371 18.334 6.41683V9.16683Z" fill="#727171"/>
</svg>
