<svg width="18" height="18" viewBox="0 0 18 18" fill="none" xmlns="http://www.w3.org/2000/svg">
<g clip-path="url(#clip0_5831_8046)">
<path d="M13.5 15.75C12.2588 15.75 11.25 14.7405 11.25 13.5M13.5 15.75C14.7405 15.75 15.75 14.7405 15.75 13.5M13.5 15.75L13.5008 18M11.25 13.5C11.25 12.2595 12.2588 11.25 13.5 11.25C14.7405 11.25 15.75 12.2595 15.75 13.5M11.25 13.5H9M15.75 13.5H18M15.0908 15.0915L16.6815 16.6815M10.3178 16.6823L11.9085 15.0908M11.9085 11.9093L10.3185 10.3185M13.5 11.2493V8.99925M15.0908 11.9093L16.6815 10.3185M9.375 9.375C8.4495 8.5845 7.33125 8.25 6 8.25M6 8.25C3.1005 8.25 0.75 9.7725 0.75 13.5V17.25H8.25M6 8.25C6.99456 8.25 7.94839 7.85491 8.65165 7.15165C9.35491 6.44839 9.75 5.49456 9.75 4.5C9.75 3.50544 9.35491 2.55161 8.65165 1.84835C7.94839 1.14509 6.99456 0.75 6 0.75C5.00544 0.75 4.05161 1.14509 3.34835 1.84835C2.64509 2.55161 2.25 3.50544 2.25 4.5C2.25 5.49456 2.64509 6.44839 3.34835 7.15165C4.05161 7.85491 5.00544 8.25 6 8.25Z" stroke="#121212" stroke-width="1.5"/>
</g>
<defs>
<clipPath id="clip0_5831_8046">
<rect width="18" height="18" fill="white"/>
</clipPath>
</defs>
</svg>
