<svg width="34" height="34" viewBox="0 0 34 34" fill="none" xmlns="http://www.w3.org/2000/svg">
<circle cx="17" cy="17" r="17" fill="#8FB0DC"/>
<path fill-rule="evenodd" clip-rule="evenodd" d="M17.0314 7C17.4293 7 17.8108 7.15804 18.0921 7.43936C18.3734 7.72068 18.5315 8.10223 18.5315 8.50007V21.7767L22.4517 17.4605C22.5865 17.3118 22.7499 17.1917 22.9321 17.1073C23.1142 17.0229 23.3114 16.9759 23.5121 16.9691C23.7127 16.9623 23.9127 16.9959 24.1001 17.0678C24.2876 17.1397 24.4586 17.2486 24.6033 17.3878C24.7479 17.5271 24.863 17.6939 24.942 17.8785C25.0209 18.0631 25.062 18.2616 25.0628 18.4624C25.0636 18.6632 25.0241 18.862 24.9466 19.0472C24.8691 19.2324 24.7553 19.4002 24.6118 19.5406L18.1115 26.5409C17.9715 26.6861 17.8038 26.8016 17.6182 26.8805C17.4326 26.9593 17.233 27 17.0314 27C16.8298 27 16.6302 26.9593 16.4446 26.8805C16.2591 26.8016 16.0913 26.6861 15.9514 26.5409L9.45104 19.5406C9.30754 19.4002 9.19368 19.2324 9.1162 19.0472C9.03873 18.862 8.99922 18.6632 9.00001 18.4624C9.00081 18.2616 9.04189 18.0631 9.12083 17.8785C9.19976 17.6939 9.31495 17.5271 9.45956 17.3878C9.60417 17.2486 9.77526 17.1397 9.96269 17.0678C10.1501 16.9959 10.3501 16.9623 10.5507 16.9691C10.7514 16.9759 10.9486 17.0229 11.1308 17.1073C11.3129 17.1917 11.4763 17.3118 11.6111 17.4605L15.5313 21.7767V8.50007C15.5313 8.10223 15.6894 7.72068 15.9707 7.43936C16.252 7.15804 16.6336 7 17.0314 7Z" fill="white"/>
</svg>
