<svg width="106" height="92" viewBox="0 0 106 92" fill="none" xmlns="http://www.w3.org/2000/svg">
<path d="M105.011 6.73002C104.592 7.06403 104.223 7.47513 103.761 7.7235C81.6023 19.3884 64.1377 35.8323 52.4375 58.1257C50.8358 61.1747 49.5767 64.3949 48.1806 67.5467C47.8808 68.2318 47.5982 68.8913 46.7159 68.8913C45.8508 68.8913 45.6196 68.1976 45.3541 67.5724C42.2277 60.284 38.4504 53.3895 33.1742 47.3944C31.1785 45.1248 28.9173 43.1549 26.3477 41.5362C24.9344 40.6455 23.6154 39.5835 23.4612 37.7678C23.2385 35.1985 24.1207 33.006 26.3049 31.5671C29.3198 29.5716 32.4976 29.1691 35.7695 31.0618C39.0072 32.9289 41.4569 35.6267 43.701 38.5386C44.883 40.0717 45.9708 41.6904 47.1699 43.3605C47.5039 42.898 47.8294 42.4698 48.1378 42.0415C54.7502 32.7233 62.3818 24.3815 71.6837 17.6583C79.7608 11.8173 88.583 7.64642 98.4416 5.83931C100.086 5.53955 101.756 5.36826 103.41 5.11132C104.163 4.99142 104.643 5.34256 105.028 5.91639V6.73858L105.011 6.73002Z" fill="#8FB0DC"/>
<path d="M77.7472 28.9475C80.1455 26.8835 82.5267 24.8366 84.9164 22.7811C94.9806 39.3791 93.456 65.1755 74.1413 80.8657C54.7323 96.6415 26.3898 93.7724 10.3899 74.4594C-5.17322 55.6688 -2.98051 27.5686 15.1436 11.5701C33.9787 -5.05362 60.7623 -2.69837 76.1113 11.8527C73.456 13.6513 70.8179 15.4413 68.1199 17.2741C59.3062 10.5167 49.3619 7.95589 38.3727 10.1142C29.7303 11.8099 22.6468 16.2463 17.1736 23.1494C6.21003 36.9896 6.86099 56.5852 18.6639 69.6633C30.5354 82.8184 50.0985 85.5162 64.9678 75.9924C79.4003 66.7428 86.6466 46.6161 77.7387 28.9561L77.7472 28.9475Z" fill="#8FB0DC"/>
</svg>
