<svg width="30" height="30" viewBox="0 0 30 30" fill="none" xmlns="http://www.w3.org/2000/svg">
<path d="M15 21.25C11.5913 21.25 7.5 17.7775 7.5 15C7.5 12.2225 11.5913 8.75 15 8.75C18.4087 8.75 22.5 12.2225 22.5 15C22.5 17.7775 18.4087 21.25 15 21.25ZM13.75 15C13.75 15.3315 13.8817 15.6495 14.1161 15.8839C14.3505 16.1183 14.6685 16.25 15 16.25C15.3315 16.25 15.6495 16.1183 15.8839 15.8839C16.1183 15.6495 16.25 15.3315 16.25 15C16.25 14.6685 16.1183 14.3505 15.8839 14.1161C15.6495 13.8817 15.3315 13.75 15 13.75C14.6685 13.75 14.3505 13.8817 14.1161 14.1161C13.8817 14.3505 13.75 14.6685 13.75 15Z" stroke="#A5A5A5" stroke-width="2"/>
</svg>
