<svg width="30" height="30" viewBox="0 0 30 30" fill="none" xmlns="http://www.w3.org/2000/svg">
<g clip-path="url(#clip0_5831_8038)">
<path d="M22.5 26.25C20.4313 26.25 18.75 24.5675 18.75 22.5M22.5 26.25C24.5675 26.25 26.25 24.5675 26.25 22.5M22.5 26.25L22.5013 30M18.75 22.5C18.75 20.4325 20.4313 18.75 22.5 18.75C24.5675 18.75 26.25 20.4325 26.25 22.5M18.75 22.5H15M26.25 22.5H30M25.1513 25.1525L27.8025 27.8025M17.1963 27.8038L19.8475 25.1513M19.8475 19.8488L17.1975 17.1975M22.5 18.7488V14.9988M25.1513 19.8488L27.8025 17.1975M15.625 15.625C14.0825 14.3075 12.2188 13.75 10 13.75M10 13.75C5.1675 13.75 1.25 16.2875 1.25 22.5V28.75H13.75M10 13.75C11.6576 13.75 13.2473 13.0915 14.4194 11.9194C15.5915 10.7473 16.25 9.1576 16.25 7.5C16.25 5.8424 15.5915 4.25269 14.4194 3.08058C13.2473 1.90848 11.6576 1.25 10 1.25C8.3424 1.25 6.75269 1.90848 5.58058 3.08058C4.40848 4.25269 3.75 5.8424 3.75 7.5C3.75 9.1576 4.40848 10.7473 5.58058 11.9194C6.75269 13.0915 8.3424 13.75 10 13.75Z" stroke="#121212" stroke-width="2"/>
</g>
<defs>
<clipPath id="clip0_5831_8038">
<rect width="30" height="30" fill="white"/>
</clipPath>
</defs>
</svg>
