<svg width="90" height="90" viewBox="0 0 90 90" fill="none" xmlns="http://www.w3.org/2000/svg">
<path fill-rule="evenodd" clip-rule="evenodd" d="M45 81.5625C54.697 81.5625 63.9968 77.7104 70.8536 70.8536C77.7104 63.9968 81.5625 54.697 81.5625 45C81.5625 35.303 77.7104 26.0032 70.8536 19.1464C63.9968 12.2896 54.697 8.4375 45 8.4375C35.303 8.4375 26.0032 12.2896 19.1464 19.1464C12.2896 26.0032 8.4375 35.303 8.4375 45C8.4375 54.697 12.2896 63.9968 19.1464 70.8536C26.0032 77.7104 35.303 81.5625 45 81.5625ZM45 90C56.9347 90 68.3807 85.2589 76.8198 76.8198C85.2589 68.3807 90 56.9347 90 45C90 33.0653 85.2589 21.6193 76.8198 13.1802C68.3807 4.74106 56.9347 0 45 0C33.0653 0 21.6193 4.74106 13.1802 13.1802C4.74106 21.6193 0 33.0653 0 45C0 56.9347 4.74106 68.3807 13.1802 76.8198C21.6193 85.2589 33.0653 90 45 90ZM50.625 61.875C50.625 63.3668 50.0324 64.7976 48.9775 65.8525C47.9226 66.9074 46.4918 67.5 45 67.5C43.5082 67.5 42.0774 66.9074 41.0225 65.8525C39.9676 64.7976 39.375 63.3668 39.375 61.875C39.375 60.3832 39.9676 58.9524 41.0225 57.8975C42.0774 56.8426 43.5082 56.25 45 56.25C46.4918 56.25 47.9226 56.8426 48.9775 57.8975C50.0324 58.9524 50.625 60.3832 50.625 61.875ZM49.2188 26.7188C49.2188 25.5999 48.7743 24.5268 47.9831 23.7356C47.1919 22.9445 46.1189 22.5 45 22.5C43.8811 22.5 42.8081 22.9445 42.0169 23.7356C41.2257 24.5268 40.7813 25.5999 40.7812 26.7188V46.4062C40.7813 47.5251 41.2257 48.5982 42.0169 49.3894C42.8081 50.1805 43.8811 50.625 45 50.625C46.1189 50.625 47.1919 50.1805 47.9831 49.3894C48.7743 48.5982 49.2188 47.5251 49.2188 46.4062V26.7188Z" fill="#DC8F8F"/>
</svg>
