<svg width="220" height="220" viewBox="0 0 220 220" fill="none" xmlns="http://www.w3.org/2000/svg">
<g clip-path="url(#clip0_7627_8848)">
<circle cx="110" cy="110" r="110" fill="white"/>
<rect x="59.8418" y="61" width="32.5248" height="16.6794" rx="5" fill="#8FB0DC"/>
<rect x="49" y="69.3398" width="115.922" height="81.7291" rx="9" fill="#EFEFEF"/>
<path d="M103.047 88.5156C104.972 85.1823 109.783 85.1823 111.707 88.5156L133.381 126.056C135.306 129.389 132.9 133.556 129.051 133.556H85.7035C81.8545 133.556 79.4489 129.389 81.3734 126.056L103.047 88.5156Z" fill="white"/>
<path d="M109.503 121.92C110.011 121.412 110.297 120.722 110.297 120.004C110.297 119.285 110.011 118.595 109.503 118.087C108.995 117.579 108.305 117.293 107.586 117.293C106.868 117.293 106.178 117.579 105.67 118.087C105.162 118.595 104.876 119.285 104.876 120.004C104.876 120.722 105.162 121.412 105.67 121.92C106.178 122.428 106.868 122.714 107.586 122.714C108.305 122.714 108.995 122.428 109.503 121.92Z" fill="#8FB0DC"/>
<path d="M109.024 101.626C109.405 102.007 109.619 102.524 109.619 103.064V112.55C109.619 113.089 109.405 113.606 109.024 113.987C108.643 114.369 108.126 114.583 107.586 114.583C107.047 114.583 106.53 114.369 106.149 113.987C105.768 113.606 105.554 113.089 105.554 112.55V103.064C105.554 102.524 105.768 102.007 106.149 101.626C106.53 101.245 107.047 101.031 107.586 101.031C108.126 101.031 108.643 101.245 109.024 101.626Z" fill="#8FB0DC"/>
</g>
<defs>
<clipPath id="clip0_7627_8848">
<rect width="220" height="220" fill="white"/>
</clipPath>
</defs>
</svg>
