<svg width="36" height="36" viewBox="0 0 36 36" fill="none" xmlns="http://www.w3.org/2000/svg">
<path d="M35 9.12262C34.8022 10.0736 34.5963 11.0227 34.4083 11.9767C33.7154 15.4984 33.0314 19.022 32.3376 22.5437C32.0794 23.8538 31.131 24.667 29.8713 24.667C23.0862 24.6689 16.302 24.667 9.51686 24.667H9.06529C9.15933 25.3861 9.24006 26.0741 9.34918 26.7583C9.36338 26.8485 9.50887 26.9378 9.61001 26.9815C9.69607 27.0193 9.80608 26.9912 9.90633 26.9912C16.7793 26.9912 23.6531 26.9912 30.526 26.9922C30.6697 26.9922 30.8161 26.9863 30.9554 27.0154C31.4895 27.13 31.8585 27.6812 31.8071 28.2644C31.7547 28.8486 31.3111 29.3028 30.7531 29.3115C30.0017 29.3231 29.2502 29.3144 28.4713 29.3144C28.8741 31.1243 28.4429 32.5886 26.9551 33.5222C25.8302 34.2277 24.6609 34.1404 23.6087 33.3126C22.3622 32.3315 22.0242 30.9641 22.403 29.3387H16.7872C17.1803 31.0825 16.773 32.5246 15.3474 33.4737C14.2269 34.2199 13.0425 34.1656 11.9681 33.3495C10.6844 32.3742 10.326 30.9874 10.7216 29.3154C10.3419 29.3154 9.98085 29.3193 9.61888 29.3154C8.38483 29.2998 7.41071 28.3983 7.23239 27.0572C6.84736 24.1488 6.48273 21.2365 6.111 18.3252C5.72508 15.3062 5.34182 12.2872 4.95679 9.26915C4.76694 7.78342 4.56821 6.29963 4.39255 4.81196C4.34996 4.44999 4.22044 4.30831 3.88331 4.32189C3.29778 4.34421 2.71047 4.33257 2.12405 4.32674C1.47553 4.32092 1.00089 3.82697 1 3.16805C0.999114 2.50427 1.46843 2.01129 2.11784 2.00547C2.7708 1.99965 3.42376 1.99868 4.07672 2.00547C5.29303 2.01906 6.26005 2.92835 6.45168 4.23843C6.53862 4.83428 6.61225 5.43304 6.69742 6.07158H32.0315C33.8032 6.07158 34.3612 6.4811 35 8.25117V9.12262ZM8.76808 22.3438C9.48137 22.3438 10.1663 22.3438 10.8512 22.3438C17.1483 22.3438 23.4455 22.3428 29.7426 22.3477C30.0274 22.3477 30.219 22.3069 30.29 21.9391C31.1239 17.6353 31.9694 13.3333 32.8105 9.0314C32.9222 8.45787 32.8743 8.39771 32.3429 8.39771C24.0204 8.39771 15.6978 8.39771 7.37611 8.39771C7.25634 8.39771 7.13657 8.39771 6.99019 8.39771C7.58371 13.0548 8.17368 17.675 8.76897 22.3448L8.76808 22.3438ZM13.746 29.3183C13.1693 29.3202 12.6903 29.8423 12.6876 30.4731C12.685 31.1039 13.1596 31.6328 13.7354 31.6405C14.3244 31.6483 14.8159 31.1116 14.8106 30.4663C14.8044 29.8365 14.3227 29.3163 13.746 29.3183ZM25.431 29.3183C24.8552 29.3212 24.377 29.8462 24.3752 30.477C24.3743 31.1078 24.8499 31.6347 25.4256 31.6405C26.0147 31.6463 26.5053 31.1087 26.4973 30.4634C26.4902 29.8336 26.0067 29.3144 25.4301 29.3183H25.431Z" fill="#252424"/>
</svg>
