<svg width="36" height="36" viewBox="0 0 36 36" fill="none" xmlns="http://www.w3.org/2000/svg">
<path d="M1 26.2976C1 20.7654 1 15.234 1 9.70177C1.06021 9.48313 1.11068 9.26188 1.18151 9.04672C1.69948 7.47355 3.10641 6.50142 4.87281 6.50142C13.3702 6.50055 21.8675 6.50142 30.3648 6.50142C30.7075 6.50142 31.051 6.4962 31.3937 6.50578C32.8909 6.54585 34.2279 7.48313 34.7494 8.86553C34.8521 9.13731 34.9177 9.42303 35 9.70264V26.2985C34.9398 26.5162 34.8884 26.7375 34.8176 26.9526C34.2996 28.5293 32.8971 29.4997 31.1272 29.4997C22.3757 29.5006 13.6243 29.4997 4.87281 29.4997C4.77365 29.4997 4.67359 29.4988 4.57443 29.4953C3.11437 29.4457 1.77917 28.5127 1.2612 27.1669C1.15318 26.8856 1.08589 26.5885 1 26.2985L1 26.2976ZM3.125 14.356C3.125 14.4918 3.125 14.6094 3.125 14.727C3.125 18.3629 3.125 21.9979 3.125 25.6338C3.125 26.788 3.75453 27.4082 4.92682 27.4082C13.6446 27.4082 22.3624 27.4082 31.0803 27.4082C32.2331 27.4082 32.8741 26.7837 32.8741 25.6582C32.8741 22.0006 32.8741 18.3438 32.8741 14.6861C32.8741 14.5807 32.8741 14.4753 32.8741 14.356H3.125ZM3.13208 12.2296H32.875C32.875 11.6112 32.875 11.0145 32.875 10.4178C32.875 9.19132 32.2685 8.59202 31.0254 8.59202C22.3412 8.59202 13.6579 8.59202 4.97375 8.59202C4.86307 8.59202 4.7524 8.5894 4.64172 8.59463C3.86344 8.63208 3.18432 9.23052 3.14094 9.99358C3.09932 10.7296 3.13208 11.4701 3.13208 12.2296Z" fill="#252424"/>
<path d="M9.49977 22.6891C9.59717 23.8973 9.11639 24.2936 7.8954 24.2919C6.70717 24.2902 6.28925 23.8921 6.29102 22.6996C6.29279 21.5071 6.70185 21.0402 7.89982 21.1342C7.91045 21.1342 7.92196 21.1351 7.93258 21.1342C9.08628 21.0384 9.59805 21.5044 9.49977 22.6882V22.6891Z" fill="#252424"/>
</svg>
