<svg width="36" height="36" viewBox="0 0 36 36" fill="none" xmlns="http://www.w3.org/2000/svg">
<path d="M28.4614 0C28.5875 0.046019 28.7127 0.0929772 28.8388 0.137118C29.7978 0.473338 30.461 1.3956 30.4973 2.44182C30.4991 2.48878 30.5 2.53574 30.5 2.5827C30.5 12.8571 30.5018 23.1316 30.4982 33.406C30.4982 34.7303 29.669 35.7445 28.4224 35.9662C28.2346 36 28.0396 35.9991 27.8472 35.9991C21.2824 36.0009 14.7167 36.0009 8.15187 36C6.51883 36 5.5 34.9491 5.5 33.2642C5.5 23.1072 5.5 12.9501 5.5 2.79307C5.5 1.30919 6.10604 0.47146 7.48686 0.0432015C7.50592 0.0375665 7.52134 0.0150266 7.53767 0C14.5126 0 21.4865 0 28.4614 0ZM7.67376 17.9634C7.67376 23.048 7.67376 28.1326 7.67376 33.2163C7.67376 33.7047 7.71458 33.7498 8.1673 33.7498C14.7212 33.7498 21.2751 33.7498 27.8282 33.7498C28.2872 33.7498 28.3253 33.7084 28.3253 33.2201C28.3253 23.0743 28.3253 12.9295 28.3253 2.78368C28.3253 2.28217 28.2936 2.25023 27.7982 2.25023C21.267 2.25023 14.7357 2.25023 8.20449 2.25023C7.70097 2.25023 7.67376 2.28029 7.67376 2.81561C7.67376 7.86455 7.67376 12.9144 7.67376 17.9634Z" fill="#252424"/>
<path d="M17.9999 15.1874C16.2117 15.1874 14.4226 15.1912 12.6345 15.1855C11.8043 15.1827 11.27 14.4192 11.553 13.6575C11.7154 13.2199 12.1001 12.9428 12.5837 12.9391C13.4102 12.9325 14.2367 12.9372 15.0632 12.9372C17.8257 12.9372 20.5874 12.9353 23.3499 12.9381C24.1964 12.939 24.7425 13.7167 24.4441 14.4821C24.2735 14.9207 23.8779 15.1855 23.3663 15.1855C21.5781 15.1883 19.789 15.1865 18.0008 15.1865L17.9999 15.1874Z" fill="#252424"/>
<path d="M17.9964 20.8114C16.2082 20.8114 14.4192 20.8152 12.631 20.8095C11.7881 20.8067 11.2456 20.0075 11.5695 19.2467C11.7673 18.7828 12.1311 18.5612 12.6219 18.5612C13.6181 18.5612 14.6142 18.5612 15.6104 18.5612C18.1915 18.5612 20.7726 18.5593 23.3537 18.5621C24.1983 18.563 24.7527 19.3501 24.4387 20.108C24.241 20.586 23.8681 20.8123 23.3628 20.8114C21.5746 20.8095 19.7855 20.8114 17.9973 20.8114H17.9964Z" fill="#252424"/>
<path d="M22.8962 29.8119C22.5342 29.8119 22.1713 29.8194 21.8102 29.81C21.196 29.7949 20.7252 29.3113 20.7188 28.7008C20.7116 28.0716 21.1833 27.5738 21.8157 27.5644C22.5288 27.5541 23.2419 27.556 23.955 27.5644C24.5882 27.5719 25.0654 28.065 25.0645 28.6896C25.0627 29.315 24.5864 29.7978 23.9495 29.81C23.5984 29.8165 23.2482 29.8109 22.8971 29.8109L22.8962 29.8119Z" fill="#252424"/>
</svg>
