<svg width="36" height="36" viewBox="0 0 36 36" fill="none" xmlns="http://www.w3.org/2000/svg">
<path d="M18.9909 35.5H16.9994C16.5844 35.4498 16.1677 35.4096 15.7536 35.3485C12.2334 34.8281 9.12826 33.3757 6.50898 30.89C3.66804 28.1942 1.91595 24.8713 1.25182 20.9496C1.14453 20.3142 1.08335 19.6706 1 19.0307C1 18.3241 1 17.6184 1 16.9119C1.09222 16.2144 1.1596 15.5133 1.28019 14.8214C3.11741 4.21729 14.044 -2.17656 23.8889 1.58727C32.8773 5.02337 37.363 15.3006 33.7471 24.4979C31.4071 30.4499 27.0163 33.9929 20.8919 35.2335C20.2659 35.3604 19.6257 35.4124 18.9918 35.4991L18.9909 35.5ZM29.7047 27.3817C33.9776 22.035 34.3953 12.7153 27.9703 6.66838C21.6376 0.707247 11.6527 1.56262 6.35027 8.51059C3.63701 12.0663 2.64746 16.1122 3.34085 20.5716C3.73365 23.0985 4.72674 25.3707 6.28111 27.4265C6.72267 22.1701 9.29052 18.5797 13.9226 16.5275C10.8555 13.8564 11.0497 9.41617 13.3604 6.94773C15.711 4.43638 19.3863 4.17712 22.0162 6.36439C23.2709 7.40873 24.0476 8.76893 24.2844 10.4094C24.6373 12.8587 23.8251 14.8917 22.0588 16.5184C26.7121 18.5943 29.2773 22.1865 29.7047 27.3808V27.3817ZM17.9871 33.3191C21.3628 33.2799 24.4094 32.2264 27.0952 30.1021C27.2371 29.9899 27.3612 29.7881 27.394 29.6083C27.5802 28.595 27.6103 27.5725 27.472 26.5492C26.7316 21.0591 21.8159 17.2925 16.4913 18.1333C11.2528 18.9604 7.59429 24.2697 8.59447 29.6119C8.62816 29.7908 8.75496 29.9917 8.89772 30.104C11.5746 32.2182 14.6098 33.2708 17.9871 33.3201V33.3191ZM18.0058 7.07188C15.6702 7.06823 13.7532 9.02728 13.7461 11.4254C13.7399 13.8318 15.6392 15.8082 17.9676 15.8191C20.32 15.8301 22.2415 13.8656 22.2432 11.4482C22.245 9.04554 20.3386 7.07644 18.0058 7.07279V7.07188Z" fill="#252424"/>
</svg>
