<svg width="36" height="36" viewBox="0 0 36 36" fill="none" xmlns="http://www.w3.org/2000/svg">
<path d="M1.00257 17.5285C1.1809 17.0457 1.29357 16.523 1.55086 16.0873C2.23666 14.9266 3.29686 14.34 4.64362 14.277C5.02778 14.2593 5.50154 14.3817 5.76947 14.1989C6.02233 14.0259 6.04894 13.5316 6.19178 13.1864C6.3222 12.8705 6.46238 12.5563 6.62384 12.2546C6.72232 12.07 6.71966 11.9467 6.5573 11.7994C6.31155 11.5775 6.07911 11.3379 5.85731 11.0912C4.52918 9.61104 4.58241 7.37389 5.97353 5.98155C7.37441 4.57946 9.5924 4.51113 11.082 5.8307C11.3464 6.06497 11.5966 6.31788 11.8406 6.57434C11.9586 6.69858 12.0526 6.71011 12.2123 6.64001C12.8174 6.3729 13.4286 6.11644 14.047 5.88216C14.2422 5.80851 14.2901 5.7109 14.2866 5.52099C14.275 4.80308 14.2591 4.08695 14.5243 3.39388C15.1702 1.70693 16.8825 0.744096 18.711 1.0609C20.3674 1.34753 21.6698 2.8783 21.7177 4.59543C21.7292 4.99121 21.6059 5.47928 21.794 5.75527C21.9706 6.01616 22.4789 6.04545 22.8347 6.19276C23.1408 6.31966 23.4469 6.45099 23.7352 6.6125C23.9392 6.72697 24.059 6.6897 24.2143 6.52731C24.696 6.02415 25.1804 5.5272 25.8334 5.22726C27.4197 4.50048 29.3139 4.96725 30.3572 6.36048C31.4085 7.76524 31.35 9.70954 30.2082 11.0211C29.9686 11.2962 29.7087 11.5545 29.4443 11.8065C29.3041 11.9396 29.2802 12.0452 29.3644 12.2324C29.6324 12.8252 29.8826 13.4278 30.1124 14.0365C30.1851 14.23 30.2783 14.2743 30.4699 14.2814C31.0421 14.3045 31.6303 14.2806 32.1822 14.4066C33.9291 14.8068 35.0824 16.4041 34.9955 18.2082C34.913 19.9289 33.5902 21.3993 31.8619 21.6531C31.4059 21.7197 30.9366 21.7064 30.4726 21.7108C30.2836 21.7126 30.1869 21.7552 30.1132 21.9513C29.8799 22.5707 29.6217 23.1812 29.3547 23.7864C29.2846 23.9462 29.2944 24.0402 29.4195 24.1583C29.6688 24.3934 29.9127 24.6366 30.1407 24.8912C31.4777 26.3821 31.4192 28.6352 30.013 30.0267C28.6015 31.4243 26.364 31.4651 24.877 30.1181C24.6561 29.9175 24.4352 29.7134 24.2391 29.4889C24.075 29.2999 23.941 29.2795 23.7059 29.3895C23.1372 29.6566 22.5517 29.89 21.9626 30.1092C21.7701 30.1811 21.7204 30.2689 21.7142 30.4633C21.6946 31.025 21.7301 31.6062 21.5962 32.1431C21.2093 33.6943 20.19 34.627 18.6161 34.9411C18.5637 34.9517 18.5158 34.9793 18.4652 34.9988H17.5355C17.4858 34.9793 17.437 34.9517 17.3846 34.9411C15.7992 34.6181 14.7772 33.6757 14.3939 32.1103C14.2644 31.5832 14.3025 31.0134 14.2874 30.4624C14.2821 30.2671 14.228 30.1775 14.0399 30.1056C13.4224 29.8696 12.8111 29.614 12.2061 29.3469C12.0419 29.2741 11.9515 29.2999 11.8352 29.4197C11.5824 29.6823 11.326 29.9441 11.0518 30.1846C9.57377 31.4802 7.35489 31.3995 5.96998 30.0062C4.59128 28.6192 4.53006 26.3901 5.83601 24.9205C6.04184 24.6889 6.25566 24.4626 6.48633 24.2576C6.6895 24.0784 6.74716 23.924 6.59191 23.6711C6.426 23.3995 6.30978 23.0969 6.18823 22.8005C6.04628 22.4544 6.01789 21.961 5.76504 21.7889C5.49622 21.6061 5.02246 21.7232 4.6383 21.7135C2.96061 21.6717 1.53045 20.5305 1.11791 18.9039C1.08065 18.7557 1.03895 18.6084 0.999023 18.4602C0.999023 18.1505 0.999023 17.8399 0.999023 17.5302L1.00257 17.5285ZM19.5973 30.3701C19.5973 30.0932 19.5973 29.8163 19.5973 29.5404C19.6 28.8464 19.8617 28.4852 20.5262 28.3202C21.597 28.054 22.5987 27.6307 23.5453 27.0663C24.0856 26.7441 24.5434 26.8027 24.9906 27.2384C25.3942 27.6324 25.7882 28.038 26.1892 28.4338C26.8936 29.1295 27.8811 29.1588 28.526 28.5065C29.1622 27.864 29.1347 26.8888 28.4533 26.1922C28.0505 25.7804 27.6362 25.382 27.2343 24.9702C26.8235 24.5487 26.7508 24.0748 27.0489 23.5806C27.6415 22.5973 28.0691 21.5502 28.353 20.4391C28.4985 19.8703 28.8756 19.5943 29.4638 19.5899C30.0618 19.5855 30.6589 19.5943 31.2568 19.5872C32.1698 19.5766 32.8742 18.8844 32.8777 18.0023C32.8822 17.1061 32.1715 16.4094 31.24 16.4015C30.6757 16.397 30.1115 16.4015 29.5472 16.4006C28.8428 16.3988 28.487 16.1281 28.3167 15.4395C28.0603 14.4012 27.653 13.4269 27.1056 12.5093C26.7348 11.8881 26.7969 11.4551 27.3159 10.935C27.7072 10.5437 28.1046 10.1586 28.4879 9.76012C29.1426 9.07948 29.1489 8.09979 28.5136 7.46973C27.8793 6.83967 26.9007 6.8592 26.2247 7.52031C25.8059 7.93029 25.3978 8.3527 24.9782 8.76268C24.5576 9.17266 24.083 9.24631 23.5879 8.94726C22.6049 8.35359 21.558 7.92586 20.4472 7.64277C19.8777 7.49724 19.6026 7.12009 19.5982 6.53174C19.5938 5.93363 19.6026 5.33641 19.5955 4.7383C19.5858 3.82339 18.8946 3.12145 18.0119 3.11701C17.1167 3.11258 16.4185 3.82339 16.4105 4.75427C16.4061 5.31866 16.4105 5.88305 16.4096 6.44744C16.4078 7.13962 16.1426 7.50345 15.4807 7.6694C14.4214 7.93384 13.4277 8.34826 12.49 8.90644C11.9 9.25785 11.4626 9.19218 10.9684 8.70411C10.5754 8.31454 10.1877 7.91964 9.79291 7.53185C9.10444 6.85653 8.11966 6.8379 7.47999 7.48304C6.84209 8.12552 6.87137 9.10433 7.55274 9.7965C7.95641 10.2065 8.36985 10.6067 8.77086 11.0193C9.18252 11.4426 9.25527 11.913 8.95628 12.4099C8.36364 13.3932 7.93512 14.4403 7.6521 15.5513C7.5066 16.1219 7.13221 16.3952 6.54045 16.4006C6.00902 16.405 5.4767 16.4272 4.94704 16.3961C3.75909 16.3278 3.12829 17.2205 3.12386 17.9872C3.11942 18.7797 3.77506 19.66 4.93108 19.5943C5.4492 19.565 5.97087 19.5872 6.49077 19.5899C7.14552 19.5926 7.5066 19.857 7.6663 20.4871C7.93956 21.567 8.3592 22.5822 8.93055 23.538C9.26059 24.089 9.19316 24.5416 8.73537 25.0075C8.33968 25.4104 7.93512 25.8035 7.53943 26.2064C6.86516 26.8923 6.84653 27.8836 7.49063 28.5198C8.12853 29.1499 9.10267 29.1313 9.78049 28.4693C10.2001 28.0593 10.6082 27.6378 11.027 27.2269C11.444 26.8178 11.9222 26.7433 12.4163 27.0414C13.3994 27.6351 14.4471 28.0611 15.557 28.3459C16.1275 28.4923 16.4025 28.8668 16.407 29.4569C16.4114 30.0329 16.4061 30.6079 16.4087 31.1838C16.4132 32.1502 17.0874 32.8681 17.9933 32.8726C18.9115 32.877 19.5911 32.1546 19.5955 31.1679C19.5964 30.9025 19.5955 30.6363 19.5955 30.371L19.5973 30.3701Z" fill="#252424"/>
<path d="M25.441 17.9785C25.4472 22.0819 22.1194 25.4274 18.0267 25.4318C13.9102 25.4363 10.5645 22.0988 10.5654 17.9892C10.5672 13.892 13.8986 10.5598 17.9992 10.5527C22.0972 10.5456 25.4348 13.8761 25.441 17.9777V17.9785ZM18.0276 12.679C15.1354 12.6523 12.7178 15.0253 12.692 17.9155C12.6654 20.8528 15.0112 23.2755 17.9079 23.3047C20.8507 23.3349 23.2869 20.9753 23.3153 18.0682C23.3446 15.1167 20.9784 12.7056 18.0276 12.679Z" fill="#252424"/>
</svg>
