<svg width="29" height="27" viewBox="0 0 29 27" fill="none" xmlns="http://www.w3.org/2000/svg">
<path d="M26.0565 13.5C26.0565 19.7132 20.7539 24.75 14.2128 24.75M26.0565 13.5C26.0565 7.2868 20.7539 2.25 14.2128 2.25M26.0565 13.5H2.36914M14.2128 24.75C7.67173 24.75 2.36914 19.7132 2.36914 13.5M14.2128 24.75C17.1752 21.6694 18.8588 17.6715 18.9503 13.5C18.8588 9.32854 17.1752 5.33065 14.2128 2.25M14.2128 24.75C11.2504 21.6694 9.56683 17.6715 9.47534 13.5C9.56683 9.32854 11.2504 5.33065 14.2128 2.25M2.36914 13.5C2.36914 7.2868 7.67173 2.25 14.2128 2.25" stroke="#F6F8FF" stroke-width="2" stroke-linecap="round" stroke-linejoin="round"/>
</svg>
