<svg width="34" height="34" viewBox="0 0 34 34" fill="none" xmlns="http://www.w3.org/2000/svg">
<circle cx="17" cy="17" r="17" fill="#8FB0DC"/>
<path d="M18.925 8.425C18.925 8.04707 18.7749 7.68461 18.5076 7.41737C18.2404 7.15013 17.8779 7 17.5 7C17.1221 7 16.7596 7.15013 16.4924 7.41737C16.2251 7.68461 16.075 8.04707 16.075 8.425V15.075H9.425C9.04707 15.075 8.68461 15.2251 8.41737 15.4924C8.15013 15.7596 8 16.1221 8 16.5C8 16.8779 8.15013 17.2404 8.41737 17.5076C8.68461 17.7749 9.04707 17.925 9.425 17.925H16.075V24.575C16.075 24.9529 16.2251 25.3154 16.4924 25.5826C16.7596 25.8499 17.1221 26 17.5 26C17.8779 26 18.2404 25.8499 18.5076 25.5826C18.7749 25.3154 18.925 24.9529 18.925 24.575V17.925H25.575C25.9529 17.925 26.3154 17.7749 26.5826 17.5076C26.8499 17.2404 27 16.8779 27 16.5C27 16.1221 26.8499 15.7596 26.5826 15.4924C26.3154 15.2251 25.9529 15.075 25.575 15.075H18.925V8.425Z" fill="white"/>
</svg>
