<svg width="18" height="18" viewBox="0 0 18 18" fill="none" xmlns="http://www.w3.org/2000/svg">
<path d="M6.75 4.5H15.75M6.75 9H15.75M6.75 13.5H12.75M3 5.25C3.19891 5.25 3.38968 5.17098 3.53033 5.03033C3.67098 4.88968 3.75 4.69891 3.75 4.5C3.75 4.30109 3.67098 4.11032 3.53033 3.96967C3.38968 3.82902 3.19891 3.75 3 3.75C2.80109 3.75 2.61032 3.82902 2.46967 3.96967C2.32902 4.11032 2.25 4.30109 2.25 4.5C2.25 4.69891 2.32902 4.88968 2.46967 5.03033C2.61032 5.17098 2.80109 5.25 3 5.25ZM3 9.75C3.19891 9.75 3.38968 9.67098 3.53033 9.53033C3.67098 9.38968 3.75 9.19891 3.75 9C3.75 8.80109 3.67098 8.61032 3.53033 8.46967C3.38968 8.32902 3.19891 8.25 3 8.25C2.80109 8.25 2.61032 8.32902 2.46967 8.46967C2.32902 8.61032 2.25 8.80109 2.25 9C2.25 9.19891 2.32902 9.38968 2.46967 9.53033C2.61032 9.67098 2.80109 9.75 3 9.75ZM3 14.25C3.19891 14.25 3.38968 14.171 3.53033 14.0303C3.67098 13.8897 3.75 13.6989 3.75 13.5C3.75 13.3011 3.67098 13.1103 3.53033 12.9697C3.38968 12.829 3.19891 12.75 3 12.75C2.80109 12.75 2.61032 12.829 2.46967 12.9697C2.32902 13.1103 2.25 13.3011 2.25 13.5C2.25 13.6989 2.32902 13.8897 2.46967 14.0303C2.61032 14.171 2.80109 14.25 3 14.25Z" stroke="#121212" stroke-width="1.5" stroke-linecap="square"/>
</svg>
