<svg width="45" height="45" viewBox="0 0 45 45" fill="none" xmlns="http://www.w3.org/2000/svg">
<circle cx="22.5" cy="22.5" r="22.5" fill="#121212"/>
<g clip-path="url(#clip0_5694_8066)">
<path d="M21.6663 21.1668C22.7714 21.1668 23.8312 20.7278 24.6126 19.9464C25.394 19.165 25.833 18.1052 25.833 17.0002C25.833 15.8951 25.394 14.8353 24.6126 14.0539C23.8312 13.2725 22.7714 12.8335 21.6663 12.8335C20.5613 12.8335 19.5015 13.2725 18.7201 14.0539C17.9387 14.8353 17.4997 15.8951 17.4997 17.0002C17.4997 18.1052 17.9387 19.165 18.7201 19.9464C19.5015 20.7278 20.5613 21.1668 21.6663 21.1668ZM21.6663 21.1668C23.3438 21.1668 24.8097 21.8002 25.8522 22.8527C26.4703 23.4793 26.9326 24.2423 27.2022 25.0802M21.6663 21.1668C18.333 21.1668 15.833 23.6668 15.833 27.0002V31.1668H24.1663M24.9997 27.6868L28.4913 30.3335L34.1663 22.8335" stroke="white" stroke-width="1.5"/>
</g>
<defs>
<clipPath id="clip0_5694_8066">
<rect width="20" height="20" fill="white" transform="translate(15 12)"/>
</clipPath>
</defs>
</svg>
