<svg width="28" height="28" viewBox="0 0 28 28" fill="none" xmlns="http://www.w3.org/2000/svg">
<circle cx="14" cy="14" r="14" fill="#8FB0DC"/>
<path d="M15.1039 7.60541C15.1039 8.52033 14.6808 11.0466 14.1623 11.0466C13.6437 11.0466 13.2207 8.52033 13.2207 7.60541C13.2207 6.6905 13.6437 5.93945 14.1623 5.93945C14.6808 5.93945 15.1039 6.6905 15.1039 7.60541Z" fill="white"/>
<path d="M11.7199 8.00145C12.1838 8.79346 13.0708 11.1968 12.6205 11.4563C12.1702 11.7157 10.5463 9.74935 10.0823 8.95733C9.61838 8.16532 9.61838 7.30502 10.0823 7.04557C10.5327 6.78612 11.2696 7.22309 11.7335 8.01511L11.7199 8.00145Z" fill="white"/>
<path d="M8.99042 9.98151C9.78189 10.4458 11.7606 12.0708 11.4876 12.5214C11.2284 12.9721 8.84031 12.0844 8.03519 11.6202C7.23008 11.1559 6.80705 10.4185 7.06633 9.96785C7.3256 9.51723 8.1853 9.51723 8.97677 9.96785L8.99042 9.98151Z" fill="white"/>
<path d="M7.61013 13.0811C8.52441 13.0811 11.0489 13.5044 11.0489 14.0233C11.0489 14.5422 8.52441 14.9655 7.61013 14.9655C6.69585 14.9655 5.94531 14.5422 5.94531 14.0233C5.94531 13.5044 6.69585 13.0811 7.61013 13.0811Z" fill="white"/>
<path d="M7.94996 16.4403C8.74143 15.976 11.1431 15.0884 11.4024 15.5391C11.6617 15.9897 9.69665 17.6147 8.90518 18.079C8.11371 18.5433 7.25401 18.5433 6.99474 18.079C6.73546 17.6284 7.17214 16.891 7.96361 16.4267L7.94996 16.4403Z" fill="white"/>
<path d="M9.93733 19.1847C10.4013 18.3927 12.0252 16.4127 12.4755 16.6858C12.9258 16.9453 12.0388 19.335 11.5748 20.1406C11.1109 20.9463 10.374 21.3696 9.92368 21.1102C9.47336 20.8507 9.47336 19.9904 9.92368 19.1984L9.93733 19.1847Z" fill="white"/>
<path d="M13.0254 20.5642C13.0254 19.6493 13.4484 17.123 13.967 17.123C14.4855 17.123 14.9085 19.6493 14.9085 20.5642C14.9085 21.4791 14.4855 22.2302 13.967 22.2302C13.4484 22.2302 13.0254 21.4791 13.0254 20.5642Z" fill="white"/>
<path d="M16.382 20.2097C15.918 19.4177 15.0311 17.0143 15.4814 16.7549C15.9317 16.4954 17.5556 18.4618 18.0195 19.2538C18.4835 20.0458 18.4835 20.9061 18.0195 21.1655C17.5692 21.425 16.8323 20.988 16.3684 20.196L16.382 20.2097Z" fill="white"/>
<path d="M19.1264 18.2294C18.3349 17.7651 16.3562 16.1401 16.6292 15.6895C16.8884 15.2388 19.2765 16.1264 20.0816 16.5907C20.8867 17.055 21.3097 17.7924 21.0505 18.243C20.7912 18.6937 19.9315 18.6937 19.14 18.243L19.1264 18.2294Z" fill="white"/>
<path d="M20.5091 15.1432C19.5948 15.1432 17.0703 14.7199 17.0703 14.201C17.0703 13.6821 19.5948 13.2588 20.5091 13.2588C21.4234 13.2588 22.1739 13.6821 22.1739 14.201C22.1739 14.7199 21.4234 15.1432 20.5091 15.1432Z" fill="white"/>
<path d="M20.1555 11.7701C19.3641 12.2343 16.9624 13.1219 16.7031 12.6713C16.4438 12.2207 18.4088 10.5957 19.2003 10.1314C19.9918 9.66713 20.8515 9.66713 21.1107 10.1314C21.37 10.582 20.9334 11.3194 20.1419 11.7837L20.1555 11.7701Z" fill="white"/>
<path d="M18.1738 9.03934C17.7099 9.83136 16.086 11.8114 15.6357 11.5383C15.1853 11.2788 16.0723 8.88913 16.5363 8.08346C17.0003 7.29145 17.7372 6.85448 18.1875 7.11393C18.6378 7.37338 18.6378 8.23367 18.1875 9.02569L18.1738 9.03934Z" fill="white"/>
</svg>
