<svg width="108" height="108" viewBox="0 0 108 108" fill="none" xmlns="http://www.w3.org/2000/svg">
<circle cx="54" cy="54" r="54" fill="#C30D23"/>
<circle cx="54.5" cy="53.5" r="32.5" fill="white"/>
<path d="M67.3896 32.2746C66.5594 31.71 65.5963 31.4111 64.6 31.4111H43.8223C42.8261 31.4111 41.8741 31.6989 41.0438 32.2635C38.7414 33.8132 36.7488 35.7504 35.1105 38.0308C34.5017 38.8831 34.1807 39.8794 34.1807 40.931V62.5943C34.1807 63.6459 34.5017 64.6533 35.1105 65.4946C36.2618 67.0997 37.6123 68.5387 39.1067 69.7896C39.1067 67.9852 39.1399 62.1515 39.1288 62.1405V41.3627C40.4572 39.3923 42.1619 37.6987 44.1323 36.3593H64.91C66.7254 37.588 68.3084 39.1377 69.5924 40.92V62.5832C68.4191 64.2105 66.9911 65.6495 65.3528 66.8118H44.9846L44.9293 71.771H59.5966L59.9619 72.6788C61.0356 75.3465 63.8473 77.1398 66.9468 77.1398C69.1497 77.1398 71.1533 76.3539 72.5702 74.937C73.8321 73.675 74.5184 72.0256 74.5184 70.3099V62.7161C74.5295 62.4393 74.5406 62.2844 74.5406 62.1294V41.3517C74.5406 40.3554 74.2528 39.3923 73.6882 38.5621C71.9946 36.0604 69.8692 33.935 67.3675 32.2414M67.3121 74.1178C65.7181 74.1178 64.434 72.8337 64.434 71.2508C64.434 69.6678 65.7181 68.3837 67.3121 68.3837C68.9061 68.3837 70.1791 69.6678 70.1791 71.2508C70.1791 72.8337 68.884 74.1178 67.3121 74.1178Z" fill="#C30D23"/>
<path d="M54.5056 20C36.0259 20 21 35.0259 21 53.5056C21 71.9852 36.0259 87 54.5056 87C72.9852 87 88 71.9741 88 53.5056C88 35.037 72.9741 20 54.5056 20ZM77.6829 62.1679C77.6829 62.4122 77.6829 62.6454 77.6496 62.8787V70.3749C77.6607 72.8848 76.6612 75.2725 74.851 77.0938C72.8742 79.0817 70.1311 80.1701 67.1326 80.1701C63.2012 80.1701 59.5919 78.0378 57.8372 74.7727H43.4666C41.8008 74.7727 40.2016 74.2619 38.8467 73.2846C36.5256 71.6076 34.4933 69.5753 32.8052 67.2432C31.8279 65.8883 31.306 64.2891 31.306 62.6121V40.8785C31.306 39.2016 31.8279 37.6024 32.8052 36.2475C34.6488 33.6932 36.9032 31.5054 39.4908 29.7507C40.8013 28.8623 42.3338 28.3958 43.9108 28.3958H64.756C66.3441 28.3958 67.8767 28.8734 69.1982 29.7618C72.0191 31.672 74.4179 34.0708 76.3169 36.8916C77.2054 38.2021 77.6718 39.7346 77.6718 41.3338V62.179L77.6829 62.1679Z" fill="#C30D23"/>
<path d="M51.6164 48.0166H57.129C58.6456 48.0166 59.8854 49.2564 59.8854 50.7729V56.2856C59.8854 57.8132 58.6456 59.042 57.129 59.042H51.6274C50.0998 59.042 48.8711 57.8022 48.8711 56.2856V50.7729C48.8711 49.2564 50.0998 48.0166 51.6274 48.0166H51.6164Z" fill="#C30D23"/>
</svg>
