<svg width="58" height="56" viewBox="0 0 58 56" fill="none" xmlns="http://www.w3.org/2000/svg">
<g clip-path="url(#clip0_5831_8069)">
<path d="M24.8699 14.7835C27.5563 18.3219 33.2715 29.2485 31.2779 30.7552C29.2844 32.2619 20.3262 23.7887 17.649 20.263C14.9717 16.7373 14.4146 12.6182 16.4082 11.1115C18.4017 9.60476 22.1835 11.2452 24.8699 14.7835Z" fill="white" fill-opacity="0.3"/>
<path d="M13.128 26.0809C17.2075 27.8142 27.5747 34.4515 26.6055 36.7605C25.6362 39.0696 13.6856 36.1929 9.61864 34.4504C5.55166 32.7079 3.03656 29.4317 3.99665 27.11C4.96594 24.801 9.05184 24.3257 13.1188 26.0682L13.128 26.0809Z" fill="white" fill-opacity="0.3"/>
<path d="M8.45614 41.6369C12.829 41.1078 25.0922 41.6694 25.4094 44.1648C25.7265 46.6603 13.9871 50.1455 9.61419 50.6746C5.24133 51.2037 1.43108 49.6033 1.10135 47.117C0.771609 44.6307 4.06152 42.1625 8.44694 41.6243L8.45614 41.6369Z" fill="white" fill-opacity="0.3"/>
<path d="M56.34 16.197C54.641 20.2736 48.0964 30.6169 45.7856 29.6281C43.4749 28.6393 46.2562 16.681 47.9644 12.617C49.6726 8.55304 52.9223 6.05609 55.2456 7.03573C57.5689 8.01537 58.0608 12.1239 56.3526 16.1878L56.34 16.197Z" fill="white" fill-opacity="0.3"/>
<path d="M40.7773 11.3824C41.3376 15.7699 40.8683 28.0588 38.3811 28.3582C35.8939 28.6577 32.33 16.8638 31.7697 12.4763C31.2094 8.08887 32.7778 4.2812 35.2557 3.96909C37.7429 3.66964 40.2204 6.97321 40.7899 11.3733L40.7773 11.3824Z" fill="white" fill-opacity="0.3"/>
</g>
<defs>
<clipPath id="clip0_5831_8069">
<rect width="58" height="56" fill="white"/>
</clipPath>
</defs>
</svg>
