<svg width="70" height="59" viewBox="0 0 70 59" fill="none" xmlns="http://www.w3.org/2000/svg">
<path d="M69.9859 4.31405C69.7062 4.5283 69.4608 4.79199 69.1525 4.95131C54.3847 12.4335 42.7451 22.9812 34.9473 37.2809C33.8799 39.2366 33.0407 41.3022 32.1102 43.3238C31.9104 43.7633 31.7221 44.1863 31.1341 44.1863C30.5575 44.1863 30.4034 43.7414 30.2264 43.3403C28.1428 38.6653 25.6254 34.243 22.109 30.3975C20.7789 28.9417 19.2719 27.6782 17.5593 26.6399C16.6174 26.0686 15.7383 25.3874 15.6356 24.2227C15.4872 22.5747 16.0751 21.1683 17.5308 20.2454C19.5402 18.9654 21.658 18.7072 23.8387 19.9213C25.9965 21.1189 27.6291 22.8493 29.1247 24.7171C29.9125 25.7005 30.6374 26.7388 31.4366 27.81C31.6593 27.5134 31.8762 27.2387 32.0817 26.964C36.4886 20.987 41.5749 15.6363 47.7743 11.3238C53.1574 7.57723 59.0371 4.90187 65.6075 3.74272C66.7036 3.55045 67.8167 3.44058 68.9185 3.27577C69.4208 3.19886 69.7405 3.4241 69.9974 3.79217V4.31955L69.9859 4.31405Z" fill="#8FB0DC"/>
<path d="M51.8159 18.5679C53.4143 17.2439 55.0013 15.931 56.5939 14.6125C63.3014 25.259 62.2853 41.8056 49.4127 51.8698C36.4773 61.989 17.5879 60.1486 6.92451 47.7607C-3.44778 35.7078 -1.98641 17.6834 10.0927 7.42145C22.6456 -3.24155 40.496 -1.73082 50.7256 7.60274C48.956 8.75638 47.1978 9.90454 45.3996 11.0802C39.5256 6.74574 32.8981 5.10317 25.5741 6.48754C19.8142 7.57527 15.0933 10.4209 11.4456 14.8487C4.13878 23.7263 4.57262 36.2956 12.4389 44.6843C20.3508 53.1224 33.389 54.8529 43.2989 48.744C52.9177 42.811 57.747 29.9011 51.8102 18.5734L51.8159 18.5679Z" fill="#8FB0DC"/>
</svg>
