<svg width="60" height="60" viewBox="0 0 60 60" fill="none" xmlns="http://www.w3.org/2000/svg">
<g clip-path="url(#clip0_7083_8482)">
<path d="M45 52.5C40.8625 52.5 37.5 49.135 37.5 45M45 52.5C49.135 52.5 52.5 49.135 52.5 45M45 52.5L45.0025 60M37.5 45C37.5 40.865 40.8625 37.5 45 37.5C49.135 37.5 52.5 40.865 52.5 45M37.5 45H30M52.5 45H60M50.3025 50.305L55.605 55.605M34.3925 55.6075L39.695 50.3025M39.695 39.6975L34.395 34.395M45 37.4975V29.9975M50.3025 39.6975L55.605 34.395M31.25 31.25C28.165 28.615 24.4375 27.5 20 27.5M20 27.5C10.335 27.5 2.5 32.575 2.5 45V57.5H27.5M20 27.5C23.3152 27.5 26.4946 26.183 28.8388 23.8388C31.183 21.4946 32.5 18.3152 32.5 15C32.5 11.6848 31.183 8.50537 28.8388 6.16117C26.4946 3.81696 23.3152 2.5 20 2.5C16.6848 2.5 13.5054 3.81696 11.1612 6.16117C8.81696 8.50537 7.5 11.6848 7.5 15C7.5 18.3152 8.81696 21.4946 11.1612 23.8388C13.5054 26.183 16.6848 27.5 20 27.5Z" stroke="#8FB0DC" stroke-width="4"/>
</g>
<defs>
<clipPath id="clip0_7083_8482">
<rect width="60" height="60" fill="white"/>
</clipPath>
</defs>
</svg>
