<svg width="229" height="55" viewBox="0 0 229 55" fill="none" xmlns="http://www.w3.org/2000/svg">
<path d="M115.92 2.47506C115.92 3.81572 115.312 7.56269 114.535 7.56269C113.758 7.56269 113.15 3.8501 113.15 2.47506C113.15 1.10003 113.758 0 114.535 0C115.312 0 115.92 1.10003 115.92 2.47506Z" fill="#8FB0DC"/>
<path d="M111.025 3.06021C111.7 4.22899 112.984 7.7697 112.342 8.14784C111.7 8.52597 109.336 5.6384 108.661 4.43525C107.985 3.23209 107.985 1.99456 108.661 1.61643C109.303 1.23829 110.383 1.85706 111.059 3.06021H111.025Z" fill="#8FB0DC"/>
<path d="M107.041 5.98126C108.189 6.66878 111.06 9.07509 110.688 9.72823C110.317 10.3814 106.838 9.07509 105.69 8.38757C104.542 7.70006 103.9 6.60003 104.272 5.94689C104.643 5.29375 105.893 5.29375 107.041 5.94689V5.98126Z" fill="#8FB0DC"/>
<path d="M105.014 10.5537C106.331 10.5537 110.012 11.1725 110.012 11.9631C110.012 12.7538 106.364 13.3725 105.014 13.3725C103.663 13.3725 102.582 12.7538 102.582 11.9631C102.582 11.1725 103.663 10.5537 105.014 10.5537Z" fill="#8FB0DC"/>
<path d="M105.517 15.5038C106.665 14.8163 110.144 13.51 110.515 14.1631C110.887 14.8163 108.05 17.2226 106.868 17.9101C105.686 18.5976 104.47 18.5976 104.099 17.9101C103.727 17.2569 104.335 16.1569 105.517 15.4694V15.5038Z" fill="#8FB0DC"/>
<path d="M108.427 19.5606C109.103 18.3918 111.467 15.4698 112.108 15.848C112.75 16.2261 111.467 19.7668 110.791 20.9356C110.116 22.1044 109.035 22.7575 108.393 22.3794C107.752 22.0012 107.752 20.7293 108.393 19.5606H108.427Z" fill="#8FB0DC"/>
<path d="M112.885 21.5886C112.885 20.2479 113.493 16.501 114.269 16.501C115.046 16.501 115.654 20.2136 115.654 21.5886C115.654 22.9636 115.046 24.0637 114.269 24.0637C113.493 24.0637 112.885 22.9636 112.885 21.5886Z" fill="#8FB0DC"/>
<path d="M117.783 21.0727C117.107 19.9039 115.824 16.3632 116.466 15.985C117.107 15.6069 119.471 18.4945 120.147 19.6976C120.822 20.8664 120.822 22.1383 120.147 22.5165C119.505 22.8946 118.424 22.2758 117.749 21.0727H117.783Z" fill="#8FB0DC"/>
<path d="M121.764 18.1503C120.616 17.4628 117.745 15.0565 118.117 14.4034C118.488 13.7502 121.967 15.0565 123.115 15.744C124.263 16.4315 124.905 17.5316 124.533 18.1847C124.162 18.8378 122.912 18.8378 121.764 18.1847V18.1503Z" fill="#8FB0DC"/>
<path d="M123.754 13.5786C122.437 13.5786 118.756 12.9598 118.756 12.1692C118.756 11.3785 122.403 10.7598 123.754 10.7598C125.105 10.7598 126.186 11.3785 126.186 12.1692C126.186 12.9598 125.105 13.5786 123.754 13.5786Z" fill="#8FB0DC"/>
<path d="M123.248 8.628C122.1 9.31552 118.622 10.6218 118.25 9.96866C117.879 9.31552 120.715 6.90921 121.897 6.22169C123.079 5.53418 124.295 5.53418 124.667 6.22169C125.038 6.87483 124.43 7.97486 123.248 8.66238V8.628Z" fill="#8FB0DC"/>
<path d="M120.377 4.57271C119.702 5.74149 117.338 8.66344 116.696 8.2853C116.054 7.90717 117.338 4.36645 118.013 3.19768C118.689 2.0289 119.769 1.37576 120.411 1.75389C121.053 2.13202 121.053 3.40393 120.411 4.57271H120.377Z" fill="#8FB0DC"/>
<path d="M176.947 24.8467H176.697V25.0967V53.6286V53.8786H176.947H182.553H182.803V53.6286V25.0967V24.8467H182.553H176.947Z" fill="#727171" stroke="#EFEFEF" stroke-width="0.5"/>
<path d="M228.025 25.0969V24.8469H227.775H222.135H222.101H221.851V25.0969V46.5712L196.525 25.9343L196.525 25.9343C195.637 25.2112 194.535 24.8125 193.395 24.8125C190.52 24.8125 188.215 27.1264 188.215 30.047V53.5945V53.8445H188.465H194.071H194.321V53.5945V32.1192L219.714 52.7572L219.715 52.7578C220.567 53.4444 221.703 53.8788 222.844 53.8788C225.69 53.8788 227.989 51.4929 228.025 48.6474V48.6443V25.0969Z" fill="#727171" stroke="#EFEFEF" stroke-width="0.5"/>
<path d="M137.366 53.8786H137.616V53.6286V45.319H162.593C167.327 45.319 171.252 41.3885 171.252 36.5095V33.6563C171.252 28.7772 167.327 24.8467 162.593 24.8467H131.76H131.51V25.0967V53.6286V53.8786H131.76H137.366ZM162.593 31.0531C163.97 31.0531 165.146 32.2432 165.146 33.6563V36.5095C165.146 37.9549 163.972 39.1127 162.593 39.1127H137.616V31.0531H162.593Z" fill="#727171" stroke="#EFEFEF" stroke-width="0.5"/>
<path d="M111.496 24.8467H111.246V25.0967V53.6286V53.8786H111.496H117.102H117.352V53.6286V25.0967V24.8467H117.102H111.496Z" fill="#727171" stroke="#EFEFEF" stroke-width="0.5"/>
<path d="M45.373 24.8467H45.123V25.0967V53.6286V53.8786H45.373H50.9791H51.2291V53.6286V25.0967V24.8467H50.9791H45.373Z" fill="#727171" stroke="#EFEFEF" stroke-width="0.5"/>
<path d="M40.8501 53.8786H41.5919L41.0014 53.4296L21.3802 38.5096L39.8809 25.3001L40.516 24.8467H39.7356H30.0095H29.9295L29.8644 24.8931L6.82225 41.3181V25.0967V24.8467H6.57225H1H0.75V25.0967V53.6286V53.8786H1H6.60603H6.85603V53.6286V48.9101L16.1586 42.2516L31.3439 53.8275L31.411 53.8786H31.4954H40.8501Z" fill="#727171" stroke="#EFEFEF" stroke-width="0.5"/>
<path d="M90.5708 51.0574L90.5709 51.0575C91.3875 52.7201 93.093 53.8786 95.0842 53.8786C97.4673 53.8786 99.4556 52.2133 99.9879 49.9739L99.9882 49.9724L105.729 25.153L105.8 24.8467H105.486H99.7446H99.546L99.5011 25.0402L94.7289 45.6018L85.9876 27.8395L85.9868 27.8379C85.1035 26.0756 83.2986 24.8467 81.238 24.8467C79.1797 24.8467 77.3726 26.0392 76.4883 27.8397L76.4882 27.8398L67.7805 45.6002L63.0086 25.0402L62.9637 24.8467H62.7651H56.9902H56.6757L56.7467 25.1531L62.4878 49.9381L62.4881 49.9395C63.0206 52.18 65.0435 53.8443 67.3918 53.8443C69.3823 53.8443 71.0872 52.6865 71.9042 51.0595L71.9052 51.0574L81.238 32.0241L90.5708 51.0574Z" fill="#727171" stroke="#EFEFEF" stroke-width="0.5"/>
</svg>
